<svg id="expand" xmlns="http://www.w3.org/2000/svg" width="29.663" height="29.663" viewBox="0 0 29.663 29.663">
  <g id="Group_1" data-name="Group 1">
    <path id="Path_143" data-name="Path 143" d="M0,.746V28.918a.745.745,0,0,0,.746.746h13.58a.746.746,0,1,0,0-1.491H1.485V1.485H28.172V14.247a.746.746,0,1,0,1.491,0V.746A.745.745,0,0,0,28.918,0H.746A.745.745,0,0,0,0,.746Z" fill="#f3f3f3"/>
    <path id="Path_144" data-name="Path 144" d="M306.116,305.37V295.046a.745.745,0,0,0-.746-.746H295.046a.745.745,0,0,0-.746.746v10.33a.745.745,0,0,0,.746.746h10.33A.753.753,0,0,0,306.116,305.37Zm-1.485-.74h-8.845v-8.845h8.845Z" transform="translate(-276.458 -276.458)" fill="#f3f3f3"/>
    <path id="Path_145" data-name="Path 145" d="M93.924,86.546a.745.745,0,0,0-.746-.746H86.546a.745.745,0,0,0-.746.746v6.638a.746.746,0,0,0,1.491,0v-4.85L95.7,96.743a.744.744,0,1,0,1.055-1.049l-8.421-8.409h4.844A.744.744,0,0,0,93.924,86.546Z" transform="translate(-80.598 -80.598)" fill="#f3f3f3"/>
  </g>
</svg>
