<svg id="image" xmlns="http://www.w3.org/2000/svg" xmlns:xlink="http://www.w3.org/1999/xlink" width="193.968" height="193.968" viewBox="0 0 193.968 193.968">
  <defs>
    <clipPath id="clip-path">
      <path id="Path_147" data-name="Path 147" d="M80.117,0A80.117,80.117,0,1,1,0,80.117,80.117,80.117,0,0,1,80.117,0Z" transform="translate(16.867 16.867)" fill="#754ef9" opacity="0.5"/>
    </clipPath>
    <clipPath id="clip-path-2">
      <ellipse id="Ellipse_3" data-name="Ellipse 3" cx="67" cy="67.5" rx="67" ry="67.5" transform="translate(0.467 -0.241)" fill="#fff"/>
    </clipPath>
  </defs>
  <path id="Path_151" data-name="Path 151" d="M96.984,0A96.984,96.984,0,1,1,0,96.984,96.984,96.984,0,0,1,96.984,0Z" fill="#754ef9" opacity="0.5"/>
  <g id="Mask_Group_9" data-name="Mask Group 9" clip-path="url(#clip-path)">
    <path id="corporate-user-icon" d="M43.7,59.863c1.045-2.9,2.641-3.846,4.744-3.787l-1.386-.92c-.751-9.4,1.452-25.719-8.76-28.808C57.622,2.469,79.892-10.515,96.613,10.725c20.145,1.058,28.226,33.07,12.158,46.546l-.094.795a8.8,8.8,0,0,1,1.862-.36,6,6,0,0,1,3.289.617,4.667,4.667,0,0,1,2.288,2.782,8.436,8.436,0,0,1-.11,4.779l-2.513,7.129a5.208,5.208,0,0,1-1.59,2.616,4.7,4.7,0,0,1-3.411.823,5.785,5.785,0,0,1-.773-.088,17.422,17.422,0,0,1-1.152,5.107A26.247,26.247,0,0,1,103.3,87.2a44.591,44.591,0,0,1-4.256,5.148,26.636,26.636,0,0,0,4.441,9.339c9.088,6.535,33.565,8.071,42.087,12.822,12.3,6.885,11.964,20.192,14.659,32.51H0c2.67-12.208,2.394-25.735,14.659-32.51,10.8-6.015,33.727-5.63,42.863-13.426A28.515,28.515,0,0,0,60.8,93.612a39.655,39.655,0,0,1-5.442-7.236l-.113-.178a24.839,24.839,0,0,1-3.887-9.8l-.488.009a6,6,0,0,1-2.932-.77,7.987,7.987,0,0,1-3.223-3.909l-.063-.163a18.107,18.107,0,0,1-1.233-5.721c-.031-.613-.031-1.831,0-3v-.016c.025-1,.078-1.965.153-2.507a1.925,1.925,0,0,1,.128-.469Zm57.249,44.966-.2-.235a28.083,28.083,0,0,1-4.895-9.163,29.409,29.409,0,0,1-7.12,4.306L88.6,99.8h0a24.177,24.177,0,0,1-10.252,2.094,22.506,22.506,0,0,1-5.53-.817l-.069-.019a24.718,24.718,0,0,1-8.763-4.4,29.519,29.519,0,0,1-4.444,8.428l10.616,25.925L76.4,116.624,73.351,113.3c-2.288-3.346-.958-7.229,2.738-7.827a47,47,0,0,1,9.645.1c3.349.9,4.347,4.685,2.385,7.724l-3.045,3.327,6.184,14.384,9.692-26.179Zm-36.735-13.2.125.106a20.447,20.447,0,0,0,15.182,6.125,24.106,24.106,0,0,0,15.914-7.4,1.89,1.89,0,0,1,.441-.341,40.368,40.368,0,0,0,4.306-5.136A22.857,22.857,0,0,0,103,80.092a14.035,14.035,0,0,0,.87-6.419,1.965,1.965,0,0,1,.316-1.208,1.913,1.913,0,0,1,2.648-.548,5.078,5.078,0,0,0,1.017.526,2.926,2.926,0,0,0,.839.185,3.209,3.209,0,0,0,.829,0,4.026,4.026,0,0,0,.363-.889l2.438-6.9a4.784,4.784,0,0,0,.153-2.56.955.955,0,0,0-.444-.576,2.274,2.274,0,0,0-1.2-.169,6.845,6.845,0,0,0-3.433,1.443,1.917,1.917,0,0,1-3.045-1.853c1.806-10.537.98-17.4-1.264-22.085a18.83,18.83,0,0,0-8.5-8.444c-7.549,5.78-12.863,6.441-18.164,7.095-4.385.541-8.76,1.083-14.556,5.092a14,14,0,0,0-5.5,6.844,17.3,17.3,0,0,0-.26,9.514,1.861,1.861,0,0,1-.05,1.142,1.917,1.917,0,0,1-2.45,1.149l-1.756-.635c-2.266-.792-3.871-1.161-4.491.263-.05.46-.084,1.164-.1,1.89v.016c-.028,1.048-.028,2.144,0,2.695a14.05,14.05,0,0,0,.929,4.422l.069.141a4.294,4.294,0,0,0,1.584,2.091,2.22,2.22,0,0,0,1.089.279,5.428,5.428,0,0,0,1.568-.26,1.8,1.8,0,0,1,.57-.1,1.912,1.912,0,0,1,1.959,1.865c.1,4.413,2,7.586,3.521,10.143l.106.178a35.046,35.046,0,0,0,5.58,7.211Z" transform="translate(16.867 23.477)"/>
  </g>
</svg>
